<svg xmlns="http://www.w3.org/2000/svg" width="240" height="26" fill="none"><path fill="#fff" d="M15.032 19.857h-9.67l-1.104 3.48H.946L8.83.665h2.68l7.885 22.67h-3.312l-1.05-3.48Zm-.893-2.662L10.144 4.76 6.202 17.195h7.937Z"></path><path fill="#fff" d="M20.34 24h-4.73l-1.104-3.479H5.834l-1.104 3.48H0L8.357 0h3.679l8.304 24Zm-3.731-1.33h1.84L11.036 1.28H9.303l-7.41 21.39h1.839l1.103-3.48h10.67l1.104 3.48Zm-1.525-4.861H5.308l4.888-15.301 4.888 15.3Zm-7.936-1.28h6.15l-3.049-9.57-3.101 9.57Zm26.595-.665 4.73 7.472h-3.469l-4.467-7.011H25.7v7.01h-3.048V.666h8.357c4.572 0 7.831 3.275 7.831 7.83 0 3.531-1.997 6.346-5.098 7.37Zm-8.042-2.2h5.151c2.838 0 4.94-2.15 4.94-5.169 0-3.02-2.102-5.169-4.94-5.169h-5.15v10.338Z"></path><path fill="#fff" d="M39.682 24h-5.045l-4.468-7.01h-3.837V24H21.97V0h9.04c4.94 0 8.515 3.582 8.515 8.495 0 3.48-1.787 6.397-4.73 7.727l4.887 7.779Zm-4.257-1.33h1.84l-4.52-7.164.788-.256c2.838-.972 4.625-3.531 4.625-6.755 0-4.248-2.943-7.164-7.148-7.164h-7.674v21.39h1.682v-7.01h5.887l4.52 6.96Zm-4.573-8.392h-5.834V2.61h5.834c3.26 0 5.624 2.456 5.624 5.834 0 3.428-2.365 5.834-5.624 5.834Zm-4.52-1.28H30.8c2.47 0 4.31-1.893 4.31-4.503 0-2.61-1.787-4.503-4.31-4.503h-4.468v9.006ZM42.836.665H56.08v2.661H45.884v7.42h10.197v2.662H45.884v7.266h10.197v2.662H42.836V.666Z"></path><path fill="#fff" d="M56.711 24H42.1V0H56.71v3.992H46.515v6.09H56.71v3.991H46.515v5.987H56.71V24Zm-13.245-1.33h11.879v-1.33H45.148v-8.598h10.197v-1.33H45.148v-8.75h10.197V1.33H43.466v21.34Zm29.486-2.814h-9.67l-1.105 3.48h-3.31L66.75.666h2.68l7.884 22.67h-3.258l-1.104-3.48Zm-.841-2.661L68.116 4.759l-3.941 12.436h7.936Z"></path><path fill="#fff" d="M78.313 24h-4.73l-1.105-3.479h-8.672l-1.103 3.48h-4.73L66.328 0h3.68l8.304 24Zm-3.732-1.33h1.84L69.01 1.28h-1.735l-7.41 21.39h1.839l1.104-3.48h10.67l1.103 3.48Zm-1.577-4.861h-9.776l4.888-15.301 4.888 15.3Zm-7.936-1.28h6.097l-3.049-9.57-3.048 9.57ZM84.777 12.077c0-4.657 3.259-8.598 8.725-8.598 5.466 0 8.725 3.992 8.725 8.598 0 4.657-3.259 8.597-8.725 8.597-5.466 0-8.725-3.991-8.725-8.597Zm15.137 0c0-3.582-2.312-6.704-6.412-6.704s-6.412 3.07-6.412 6.704c0 3.582 2.365 6.704 6.412 6.704 4.1-.051 6.465-3.122 6.412-6.704Zm5.151-8.24h9.618v1.945h-7.41v5.937h7.41v1.944h-7.41v6.653h-2.208V3.838ZM142.398 9.607c0 4.554-3.258 7.83-7.831 7.83h-5.308v7.01h-3.049V1.777h8.357c4.573 0 7.831 3.275 7.831 7.83Zm-3.048 0c0-3.02-2.102-5.17-4.941-5.17h-5.15v10.338h5.15c2.839 0 4.941-2.15 4.941-5.168Z"></path><path fill="#fff" d="M129.889 25.112h-4.362v-24h9.04c4.941 0 8.515 3.582 8.515 8.494 0 4.913-3.574 8.444-8.515 8.444h-4.625v7.062h-.053Zm-2.995-1.28h1.681v-7.01h5.992c4.205 0 7.148-2.917 7.148-7.165 0-4.247-2.943-7.164-7.148-7.164h-7.673v21.34Zm7.515-8.392h-5.834V3.772h5.834c3.259 0 5.624 2.457 5.624 5.834 0 3.378-2.365 5.834-5.624 5.834Zm-4.52-1.33h4.468c2.47 0 4.31-1.894 4.31-4.504 0-2.61-1.787-4.503-4.31-4.503h-4.468v9.007Zm15.61-12.333h13.245v2.66h-10.196v7.421h10.196v2.661h-10.196v7.267h10.196v2.66h-13.245V1.777Z"></path><path fill="#fff" d="M159.427 25.112h-14.611v-24h14.611v3.99h-10.196v6.09h10.196v3.992h-10.196v5.988h10.196v3.94Zm-13.245-1.28h11.879v-1.33h-10.197v-8.597h10.197v-1.33h-10.197V3.823h10.197v-1.33l-11.879-.001v21.34Zm15.715-10.695c0-6.396 4.468-11.872 12.036-11.872 7.569 0 12.036 5.476 12.036 11.872 0 6.397-4.467 11.873-12.036 11.873-7.568 0-12.036-5.476-12.036-11.873Zm20.814 0c.052-4.964-3.206-9.211-8.83-9.211-5.624 0-8.83 4.247-8.83 9.211s3.206 9.212 8.83 9.212c5.624 0 8.882-4.248 8.83-9.212Z"></path><path fill="#fff" d="M173.881 25.624c-8.304 0-12.667-6.295-12.667-12.538S165.577.548 173.881.548c8.304 0 12.667 6.295 12.667 12.538.052 6.243-4.31 12.538-12.667 12.538Zm0-23.694c-6.675 0-11.353 4.606-11.353 11.207 0 6.602 4.678 11.207 11.353 11.207s11.353-4.605 11.353-11.207c0-6.601-4.678-11.207-11.353-11.207Zm0 21.084c-5.624 0-9.513-4.043-9.513-9.877 0-5.834 3.942-9.876 9.513-9.876 2.628 0 4.941.87 6.623 2.558 1.839 1.791 2.838 4.401 2.838 7.318s-.999 5.476-2.838 7.318c-1.682 1.638-3.942 2.559-6.623 2.559Zm0-18.423c-5.624 0-8.199 4.452-8.199 8.546 0 4.094 2.575 8.546 8.199 8.546 2.26 0 4.257-.767 5.677-2.149 1.576-1.586 2.47-3.838 2.47-6.397 0-2.558-.841-4.81-2.47-6.397-1.42-1.381-3.364-2.149-5.677-2.149Zm32.114 5.015c0 4.555-3.259 7.83-7.832 7.83h-5.308v7.01h-3.048V1.777h8.356c4.573 0 7.832 3.276 7.832 7.83Zm-3.049 0c0-3.02-2.102-5.168-4.94-5.168h-5.151v10.337h5.151c2.838 0 4.94-2.15 4.94-5.169Z"></path><path fill="#fff" d="M193.485 25.112h-4.362v-24h9.04c4.941 0 8.515 3.582 8.515 8.494 0 4.913-3.574 8.444-8.515 8.444h-4.625v7.062h-.053Zm-2.995-1.28h1.681v-7.01h5.992c4.205 0 7.148-2.917 7.148-7.165 0-4.247-2.943-7.164-7.148-7.164h-7.673v21.34Zm7.515-8.392h-5.834V3.772h5.834c3.259 0 5.624 2.457 5.624 5.834 0 3.378-2.365 5.834-5.624 5.834Zm-4.52-1.33h4.468c2.47 0 4.31-1.894 4.31-4.504 0-2.61-1.787-4.503-4.31-4.503h-4.468v9.007Zm15.61-12.333h3.049v19.907h9.933v2.763h-12.929V1.777h-.053Z"></path><path fill="#fff" d="M222.708 25.112h-14.296v-24h4.362v19.906h9.934v4.094Zm-12.929-1.28h11.615V22.35h-9.933V2.442h-1.682v21.39Zm16.345-22.055h13.245v2.66h-10.196v7.421h10.196v2.661h-10.196v7.267h10.196v2.66h-13.245V1.777Z"></path><path fill="#fff" d="M240 25.112h-14.611v-24H240v3.99h-10.197v6.09H240v3.992h-10.197v5.988H240v3.94Zm-13.245-1.28h11.878v-1.33h-10.196v-8.597h10.196v-1.33h-10.196V3.823h10.196v-1.33l-11.878-.001v21.34ZM84.777 23.898h29.906v.256H84.777v-.256Zm0-23.386h29.906v.256H84.777V.512Z"></path></svg>